<mxfile host="65bd71144e">
    <diagram name="第 1 页" id="jBZ52Xuvsg8nP6N8DxlP">
        <mxGraphModel dx="1097" dy="771" grid="1" gridSize="10" guides="1" tooltips="1" connect="1" arrows="1" fold="1" page="1" pageScale="1" pageWidth="827" pageHeight="1169" math="0" shadow="0">
            <root>
                <mxCell id="owUtmY5QCKhOeZTHsztp-0"/>
                <mxCell id="owUtmY5QCKhOeZTHsztp-1" parent="owUtmY5QCKhOeZTHsztp-0"/>
                <mxCell id="owUtmY5QCKhOeZTHsztp-2" style="edgeStyle=none;html=1;exitX=0.5;exitY=1;exitDx=0;exitDy=0;entryX=0.5;entryY=0;entryDx=0;entryDy=0;" parent="owUtmY5QCKhOeZTHsztp-1" source="owUtmY5QCKhOeZTHsztp-3" target="owUtmY5QCKhOeZTHsztp-5" edge="1">
                    <mxGeometry relative="1" as="geometry"/>
                </mxCell>
                <mxCell id="owUtmY5QCKhOeZTHsztp-3" value="开始" style="rounded=1;whiteSpace=wrap;html=1;" parent="owUtmY5QCKhOeZTHsztp-1" vertex="1">
                    <mxGeometry x="70" y="80" width="120" height="60" as="geometry"/>
                </mxCell>
                <mxCell id="owUtmY5QCKhOeZTHsztp-4" value="" style="edgeStyle=none;html=1;" parent="owUtmY5QCKhOeZTHsztp-1" source="owUtmY5QCKhOeZTHsztp-5" target="owUtmY5QCKhOeZTHsztp-7" edge="1">
                    <mxGeometry relative="1" as="geometry"/>
                </mxCell>
                <mxCell id="owUtmY5QCKhOeZTHsztp-5" value="输入ID" style="rounded=0;whiteSpace=wrap;html=1;" parent="owUtmY5QCKhOeZTHsztp-1" vertex="1">
                    <mxGeometry x="70" y="220" width="120" height="60" as="geometry"/>
                </mxCell>
                <mxCell id="owUtmY5QCKhOeZTHsztp-6" value="" style="edgeStyle=none;html=1;" parent="owUtmY5QCKhOeZTHsztp-1" source="owUtmY5QCKhOeZTHsztp-7" target="owUtmY5QCKhOeZTHsztp-9" edge="1">
                    <mxGeometry relative="1" as="geometry"/>
                </mxCell>
                <mxCell id="owUtmY5QCKhOeZTHsztp-7" value="输入密码" style="whiteSpace=wrap;html=1;rounded=0;" parent="owUtmY5QCKhOeZTHsztp-1" vertex="1">
                    <mxGeometry x="70" y="360" width="120" height="60" as="geometry"/>
                </mxCell>
                <mxCell id="owUtmY5QCKhOeZTHsztp-8" value="" style="edgeStyle=none;html=1;" parent="owUtmY5QCKhOeZTHsztp-1" source="owUtmY5QCKhOeZTHsztp-9" target="owUtmY5QCKhOeZTHsztp-11" edge="1">
                    <mxGeometry relative="1" as="geometry"/>
                </mxCell>
                <mxCell id="owUtmY5QCKhOeZTHsztp-9" value="确认密码" style="whiteSpace=wrap;html=1;rounded=0;" parent="owUtmY5QCKhOeZTHsztp-1" vertex="1">
                    <mxGeometry x="70" y="500" width="120" height="60" as="geometry"/>
                </mxCell>
                <mxCell id="owUtmY5QCKhOeZTHsztp-10" value="" style="edgeStyle=none;html=1;" parent="owUtmY5QCKhOeZTHsztp-1" source="owUtmY5QCKhOeZTHsztp-11" target="owUtmY5QCKhOeZTHsztp-13" edge="1">
                    <mxGeometry relative="1" as="geometry">
                        <Array as="points">
                            <mxPoint x="230" y="670"/>
                            <mxPoint x="230" y="190"/>
                        </Array>
                    </mxGeometry>
                </mxCell>
                <mxCell id="owUtmY5QCKhOeZTHsztp-11" value="客户端检查信息格式" style="whiteSpace=wrap;html=1;rounded=0;" parent="owUtmY5QCKhOeZTHsztp-1" vertex="1">
                    <mxGeometry x="70" y="640" width="120" height="60" as="geometry"/>
                </mxCell>
                <mxCell id="owUtmY5QCKhOeZTHsztp-12" value="" style="edgeStyle=none;html=1;" parent="owUtmY5QCKhOeZTHsztp-1" source="owUtmY5QCKhOeZTHsztp-13" target="owUtmY5QCKhOeZTHsztp-15" edge="1">
                    <mxGeometry relative="1" as="geometry"/>
                </mxCell>
                <mxCell id="owUtmY5QCKhOeZTHsztp-13" value="向服务端发送&lt;br&gt;修改密码请求" style="whiteSpace=wrap;html=1;rounded=0;" parent="owUtmY5QCKhOeZTHsztp-1" vertex="1">
                    <mxGeometry x="260" y="160" width="120" height="60" as="geometry"/>
                </mxCell>
                <mxCell id="owUtmY5QCKhOeZTHsztp-14" value="" style="edgeStyle=none;html=1;" parent="owUtmY5QCKhOeZTHsztp-1" source="owUtmY5QCKhOeZTHsztp-15" target="owUtmY5QCKhOeZTHsztp-17" edge="1">
                    <mxGeometry relative="1" as="geometry"/>
                </mxCell>
                <mxCell id="owUtmY5QCKhOeZTHsztp-15" value="服务端解析数据" style="whiteSpace=wrap;html=1;rounded=0;" parent="owUtmY5QCKhOeZTHsztp-1" vertex="1">
                    <mxGeometry x="260" y="300" width="120" height="60" as="geometry"/>
                </mxCell>
                <mxCell id="owUtmY5QCKhOeZTHsztp-16" value="" style="edgeStyle=none;html=1;" parent="owUtmY5QCKhOeZTHsztp-1" source="owUtmY5QCKhOeZTHsztp-17" target="owUtmY5QCKhOeZTHsztp-22" edge="1">
                    <mxGeometry relative="1" as="geometry"/>
                </mxCell>
                <mxCell id="owUtmY5QCKhOeZTHsztp-17" value="服务端解析cookie" style="whiteSpace=wrap;html=1;rounded=0;" parent="owUtmY5QCKhOeZTHsztp-1" vertex="1">
                    <mxGeometry x="260" y="440" width="120" height="60" as="geometry"/>
                </mxCell>
                <mxCell id="owUtmY5QCKhOeZTHsztp-18" value="" style="edgeStyle=none;html=1;" parent="owUtmY5QCKhOeZTHsztp-1" source="owUtmY5QCKhOeZTHsztp-22" target="owUtmY5QCKhOeZTHsztp-24" edge="1">
                    <mxGeometry relative="1" as="geometry">
                        <Array as="points">
                            <mxPoint x="410" y="610"/>
                            <mxPoint x="410" y="250"/>
                        </Array>
                    </mxGeometry>
                </mxCell>
                <mxCell id="owUtmY5QCKhOeZTHsztp-19" value="是" style="edgeLabel;html=1;align=center;verticalAlign=middle;resizable=0;points=[];" parent="owUtmY5QCKhOeZTHsztp-18" vertex="1" connectable="0">
                    <mxGeometry x="-0.1192" y="1" relative="1" as="geometry">
                        <mxPoint as="offset"/>
                    </mxGeometry>
                </mxCell>
                <mxCell id="owUtmY5QCKhOeZTHsztp-20" style="edgeStyle=none;html=1;exitX=0.5;exitY=1;exitDx=0;exitDy=0;entryX=0;entryY=0.5;entryDx=0;entryDy=0;" parent="owUtmY5QCKhOeZTHsztp-1" source="owUtmY5QCKhOeZTHsztp-22" target="owUtmY5QCKhOeZTHsztp-29" edge="1">
                    <mxGeometry relative="1" as="geometry">
                        <Array as="points">
                            <mxPoint x="320" y="670"/>
                        </Array>
                    </mxGeometry>
                </mxCell>
                <mxCell id="owUtmY5QCKhOeZTHsztp-21" value="否" style="edgeLabel;html=1;align=center;verticalAlign=middle;resizable=0;points=[];" parent="owUtmY5QCKhOeZTHsztp-20" vertex="1" connectable="0">
                    <mxGeometry x="-0.2375" y="-4" relative="1" as="geometry">
                        <mxPoint as="offset"/>
                    </mxGeometry>
                </mxCell>
                <mxCell id="owUtmY5QCKhOeZTHsztp-22" value="身份认证通过" style="rhombus;whiteSpace=wrap;html=1;rounded=0;" parent="owUtmY5QCKhOeZTHsztp-1" vertex="1">
                    <mxGeometry x="280" y="570" width="80" height="80" as="geometry"/>
                </mxCell>
                <mxCell id="owUtmY5QCKhOeZTHsztp-23" value="" style="edgeStyle=none;html=1;" parent="owUtmY5QCKhOeZTHsztp-1" source="owUtmY5QCKhOeZTHsztp-24" target="owUtmY5QCKhOeZTHsztp-26" edge="1">
                    <mxGeometry relative="1" as="geometry"/>
                </mxCell>
                <mxCell id="owUtmY5QCKhOeZTHsztp-24" value="服务端处理&lt;br&gt;并返回响应" style="whiteSpace=wrap;html=1;rounded=0;" parent="owUtmY5QCKhOeZTHsztp-1" vertex="1">
                    <mxGeometry x="460" y="220" width="120" height="60" as="geometry"/>
                </mxCell>
                <mxCell id="owUtmY5QCKhOeZTHsztp-25" value="" style="edgeStyle=none;html=1;" parent="owUtmY5QCKhOeZTHsztp-1" source="owUtmY5QCKhOeZTHsztp-26" target="owUtmY5QCKhOeZTHsztp-28" edge="1">
                    <mxGeometry relative="1" as="geometry"/>
                </mxCell>
                <mxCell id="owUtmY5QCKhOeZTHsztp-26" value="客户端解析响应" style="whiteSpace=wrap;html=1;rounded=0;" parent="owUtmY5QCKhOeZTHsztp-1" vertex="1">
                    <mxGeometry x="460" y="360" width="120" height="60" as="geometry"/>
                </mxCell>
                <mxCell id="owUtmY5QCKhOeZTHsztp-27" style="edgeStyle=none;html=1;exitX=0.5;exitY=1;exitDx=0;exitDy=0;entryX=0.5;entryY=0;entryDx=0;entryDy=0;" parent="owUtmY5QCKhOeZTHsztp-1" source="owUtmY5QCKhOeZTHsztp-28" target="owUtmY5QCKhOeZTHsztp-29" edge="1">
                    <mxGeometry relative="1" as="geometry"/>
                </mxCell>
                <mxCell id="owUtmY5QCKhOeZTHsztp-28" value="客户端展示结果" style="whiteSpace=wrap;html=1;rounded=0;" parent="owUtmY5QCKhOeZTHsztp-1" vertex="1">
                    <mxGeometry x="460" y="500" width="120" height="60" as="geometry"/>
                </mxCell>
                <mxCell id="owUtmY5QCKhOeZTHsztp-29" value="结束" style="rounded=1;whiteSpace=wrap;html=1;" parent="owUtmY5QCKhOeZTHsztp-1" vertex="1">
                    <mxGeometry x="460" y="640" width="120" height="60" as="geometry"/>
                </mxCell>
            </root>
        </mxGraphModel>
    </diagram>
</mxfile>